<svg xmlns="http://www.w3.org/2000/svg" xmlns:xlink="http://www.w3.org/1999/xlink" width="123.956" height="134.309" viewBox="0 0 123.956 134.309"><defs><style>.a{fill:#1cd4f1;}.b{fill:url(#a);}.c{fill:#75cfe5;}.d{fill:#fff;}.e{fill:url(#b);}.f{fill:#002942;}.g{fill:url(#c);}.h{fill:url(#d);}.i{fill:url(#e);}.j{fill:url(#f);}.k{fill:url(#g);}</style><linearGradient id="a" x1="2.223" y1="-0.348" x2="3.538" y2="-0.348" gradientUnits="objectBoundingBox"><stop offset="0" stop-color="#2e3192" stop-opacity="0"/><stop offset="1" stop-color="#002942"/></linearGradient><linearGradient id="b" x1="-0.864" y1="7.332" x2="-0.247" y2="7.332" xlink:href="#a"/><linearGradient id="c" x1="-0.001" y1="0.5" x2="0.999" y2="0.5" xlink:href="#a"/><linearGradient id="d" x1="29.728" y1="-3.682" x2="32.67" y2="-3.682" xlink:href="#a"/><linearGradient id="e" x1="0.002" y1="0.499" x2="1.001" y2="0.499" xlink:href="#a"/><linearGradient id="f" x1="2.602" y1="23.13" x2="3.551" y2="23.13" xlink:href="#a"/><linearGradient id="g" x1="1.325" y1="2.098" x2="2.326" y2="2.098" xlink:href="#a"/></defs><g transform="translate(0 0)"><path class="a" d="M419.3,422.645l6.794,56.946-17.8.911.542.58,35.72,38.226.333-78.606-25.55-18.8" transform="translate(-384.334 -386.946)"/><path class="b" d="M451,508.356,470.048,471l-.333,76.328Z" transform="translate(-409.237 -415.711)"/><path class="c" d="M408.3,483.373,418.97,426.8l7.794,55.041" transform="translate(-384.334 -389.816)"/><path class="d" d="M409.6,479.874,419.728,438l6.585,41.084L419.728,422.1" transform="translate(-385.092 -387.063)"/><path class="d" d="M453.6,508.732l17.922-33.049-.042-4.183" transform="translate(-410.753 -416.004)"/><path class="a" d="M515.136,518.475l-8.836,45.8,58.352-31.558L545.438,503.4,528.1,538.851l-12.421-20.086" transform="translate(-441.488 -434.693)"/><path class="e" d="M505.7,606.741,528.332,580.9l35.011-5.8-54.517,29.529" transform="translate(-441.138 -476.698)"/><path class="c" d="M528.1,518.43l12.254,21.163,16.8-35.493-27.175,13.667" transform="translate(-454.201 -435.103)"/><path class="d" d="M530.1,518.1l20.923-6.958-9.211,26.091,17.13-34.333" transform="translate(-455.368 -434.4)"/><path class="d" d="M559.2,581.961l22.049.994,13.213-7.455" transform="translate(-472.339 -476.932)"/><path class="f" d="M542.921,500.3l-29.843,15.034-.333.166-.167.828h0L503.2,563.786l1.584-.87,57.935-31.351.917-.5L543.921,499.8Zm-.875,2.071-15.922,33.049-11.67-19.134Zm-36.553,57.484,8.253-41.871,11.5,18.885Zm1.917.041,19.173-22.281,31.844-5.343Zm53.976-29.612L527.458,536l16.255-33.712Z" transform="translate(-439.68 -432.583)"/><g transform="translate(70.564 62.578)"><path class="a" d="M523.2,491.083l2.376.87,4.877,1.822L538.7,491l-12.921.124" transform="translate(-521.908 -490.006)"/><path class="a" d="M531.5,500.783l3.793-6.129,8.628-2.154Z" transform="translate(-526.748 -490.885)"/><path class="g" d="M531.5,500.783l3.793-6.129,8.628-2.154Z" transform="translate(-526.748 -490.885)"/><path class="c" d="M522.1,491.8l1.292,11.016,6.044-8.739" transform="translate(-521.266 -490.475)"/><path class="d" d="M523.767,501.077l1.084-5.674,4-.663L522.1,491.8" transform="translate(-521.266 -490.475)"/><path class="f" d="M537.981,488.683l-16.839.373H520.1l1.334,13.17,1.167-.828,15.838-11.306,2.126-1.491Zm-4.918,1.574-4.46,1.408c-.667-.29-2-.745-3.376-1.242Zm-11.3.58c2.459.787,4.877,1.615,5.919,2.029A61.792,61.792,0,0,1,522.6,499.2Zm4.752,6.005a18.959,18.959,0,0,0,2.668-3.852l4.835-1.532Z" transform="translate(-520.1 -488.6)"/></g><path class="f" d="M416.837,420.367,405.5,479.093l.625.663h0l36.095,38.309,1.417,1.491.75-79.848V439l-27.3-20Zm.625,4.6,6.46,52.307-16.714.828Zm-9.545,54.544,16.38-.787,16.13,35.286Zm34.344,34.954-16.714-36.487,17.381-35.368Zm.5-74.837-17.589,35.783-6.627-53.55Z" transform="translate(-382.701 -385.247)"/><path class="a" d="M470.2,363.534l25.175,30.9L492.5,349.246,467.2,340.3l15.755,24.89Z" transform="translate(-418.685 -339.14)"/><path class="h" d="M516.92,405.469,505,377.845l9.545-15.945,2.667,41.5" transform="translate(-440.73 -351.795)"/><path class="c" d="M468.934,363.54l13.713,1.408L466.6,341.3" transform="translate(-418.335 -339.726)"/><path class="d" d="M470.9,363.167l.75-9.981,10.337,11.223L468.4,341.3" transform="translate(-419.384 -339.726)"/><path class="d" d="M506.5,378.285l9.42-10.934-.458-3.852" transform="translate(-441.604 -352.732)"/><path class="f" d="M492.017,347.688l-.042-.911L464.8,337.5l.167,1.45,2.5,22.944.459.58,25.425,30.689,1.584,1.905-.167-2.485Zm1,41-10.545-24.725-.333-.787.042-.083,8.461-13.419Zm-25.675-48.745L490.1,347.73l-8.794,14Zm-.667,1.657,13.213,20.625L468.8,360.982Zm3.168,20.915,10.962,1.242,10.545,24.766Z" transform="translate(-417.285 -337.5)"/><g transform="translate(4.543 49.45)"><path class="a" d="M367.9,461l7.336,6.751,5.835-4.307" transform="translate(-365.316 -459.302)"/><path class="a" d="M385.5,471.969l6.419-3.769-3.168,18.513Z" transform="translate(-375.58 -463.52)"/><path class="i" d="M385.5,471.969l6.419-3.769-3.168,18.513Z" transform="translate(-375.58 -463.52)"/><path class="c" d="M366.4,461.2l8.211,7.082,2.042,12.922-9.92-18.181" transform="translate(-364.441 -459.419)"/><path class="d" d="M368.6,462.424l7.961,4.887-1.959,1.408,1.917,10.561-.542-.29-3.334-9.733-4.376-5.177L366.6,462.3" transform="translate(-364.558 -460.064)"/><path class="f" d="M378.164,460.42,361.7,456.9l.834,1.615,11.629,22.447,1.084,2.071,4.085-22.364Zm-12.754.5,5.669,4.846,2.042,10.105Zm6.419,3.52-6.085-5.177,10.8,2.319Zm3.043,12.507-2.292-11.265L377.5,462.7Z" transform="translate(-361.7 -456.9)"/></g><path class="a" d="M392.32,560.528l-19.381,10.685-.875-22.613L354.6,568.314l34.469,23.192,3.209-29.322" transform="translate(-353.016 -461.173)"/><path class="j" d="M356.267,596.2c.125.083,17.922,3.479,17.922,3.479l14.171,18.554L355.6,596.407" transform="translate(-353.599 -489.059)"/><path class="c" d="M398.4,548.7l.542,22.571,18.714-11.306" transform="translate(-378.56 -461.231)"/><path class="d" d="M398.2,551.2l12.921,10.851-12.087,9.567,18.714-9.567" transform="translate(-378.444 -462.696)"/><path class="d" d="M396.9,605l6.335,13.17,9.336,5.591" transform="translate(-377.686 -494.215)"/><path class="f" d="M391.063,559.053l.125-1.077L369.639,545.8l-.75.828L350.8,566.8l.959.621,34.553,23.027,1.209.787Zm-2.167-.621L371.39,568.5l-.834-20.459Zm-35.511,7.7,15.755-17.56.792,20.293Zm1.751,1.781,14.838,2.443.25.041.292.29,12.879,16.11Zm16.672,1.988,17.672-10.147-3.084,28.369Z" transform="translate(-350.8 -459.533)"/><path class="a" d="M561.9,422.893l13.379.787L568.11,406.7l14,15.324-6.294,16.483Z" transform="translate(-473.914 -378.041)"/><path class="k" d="M594.542,459.909,594,445.7l6.836-.7Z" transform="translate(-492.634 -400.479)"/><path class="c" d="M566.518,406.7c-.458,1.367-5.919,15.862-5.919,15.862l13.921,1.118-6.877-15.862" transform="translate(-473.155 -378.041)"/><path class="d" d="M563.3,420.325l5.293-8.573,6.21,9.236L568.385,403.8" transform="translate(-474.73 -376.342)"/><path class="f" d="M565.552,401,558.8,419.554l.625.7,14.8,16.111.542-1.367,6.085-15.406.375-.994-14.713-16.483Zm.333,3.4,6.294,14.951-11.545-.663Zm-4.46,15.779,11.212.663.542,12.176ZM574.6,431.523l-.5-10.768,5.168-1.035Zm4.46-13.253-5.252,1.035-5.543-13.17Z" transform="translate(-472.106 -374.701)"/></g></svg>