<svg xmlns="http://www.w3.org/2000/svg" width="97.943" height="59.039" viewBox="0 0 97.943 59.039"><defs><style>.a{isolation:isolate;}.b{fill:#3a9bd9;}.b,.c,.d{fill-rule:evenodd;}.c{fill:#cc2131;}.d{fill:#fff;}</style></defs><g class="a"><path class="b" d="M51.805,91.39a29.665,29.665,0,0,0,0-43.758,29.077,29.077,0,0,0-19.67-7.64,29.52,29.52,0,0,0,0,59.039A29.076,29.076,0,0,0,51.805,91.39Z" transform="translate(-2.834 -39.992)"/><path class="c" d="M107.881,39.992a29.075,29.075,0,0,0-19.67,7.64,29.708,29.708,0,0,0-2.958,3.125h5.915A29.618,29.618,0,0,1,93.4,53.883H83.019a29.662,29.662,0,0,0-1.689,3.126h13.76a29.464,29.464,0,0,1,1.243,3.125H80.089a29.49,29.49,0,0,0-.851,3.125H97.184a29.9,29.9,0,0,1-.851,15.627H80.089a29.278,29.278,0,0,0,1.241,3.126h13.76A29.546,29.546,0,0,1,93.4,85.139H83.019a29.622,29.622,0,0,0,2.233,3.126h5.915a29.534,29.534,0,0,1-2.956,3.126,29.075,29.075,0,0,0,19.67,7.64,29.52,29.52,0,0,0,0-59.039Z" transform="translate(-39.24 -39.992)"/><path class="c" d="M182.469,126.943a.947.947,0,1,1,.947.953A.95.95,0,0,1,182.469,126.943Zm.947.723a.725.725,0,1,0-.72-.724A.721.721,0,0,0,183.416,127.666Zm-.128-.306h-.194v-.839h.352a.38.38,0,0,1,.211.043.251.251,0,0,1,.106.209.23.23,0,0,1-.144.217l.153.369h-.216l-.127-.331h-.142v-.142h.107a.244.244,0,0,0,.118-.017.114.114,0,0,0,.049-.1.107.107,0,0,0-.047-.085.258.258,0,0,0-.125-.015h-.1v.688Z" transform="translate(-88.428 -80.969)"/><path class="d" d="M99.557,95.845a.946.946,0,1,1,.946.953A.95.95,0,0,1,99.557,95.845Zm.945.723a.725.725,0,1,0-.719-.724A.721.721,0,0,0,100.5,96.569Zm-.128-.306h-.194v-.838h.352a.37.37,0,0,1,.212.043.249.249,0,0,1,.106.208.228.228,0,0,1-.144.217l.153.369h-.215l-.128-.331h-.142v-.142h.107a.24.24,0,0,0,.118-.016.116.116,0,0,0,.049-.1.106.106,0,0,0-.047-.086.269.269,0,0,0-.124-.015h-.1v.688h0ZM37.353,96.8H33.706l2.167-11.5-4.99,11.5H27.558L26.95,85.359,24.776,96.8h-3.31l2.829-14.966h5.691l.3,9.265L34.3,81.833h5.93Zm40.756-.149a9.394,9.394,0,0,1-2.621.395c-1.866,0-2.885-.943-2.885-2.673a6.171,6.171,0,0,1,.107-1.092l.222-1.19.171-.963,1.69-9.294h3.627l-.526,2.8h1.861l-.5,2.959H77.388l-.961,5.078a2.869,2.869,0,0,0-.062.5c0,.629.377.9,1.244.9a3.418,3.418,0,0,0,.984-.114l-.483,2.692ZM88.76,84.727a1.924,1.924,0,0,0-.413-.131l-.314-.071a2.036,2.036,0,0,0-.367-.03c-1.2,0-2.061.537-3.177,1.976l.322-1.844h-3.3L79.286,96.8h3.649c1.306-7.444,1.865-8.747,3.615-8.747a4.082,4.082,0,0,1,.461.031l.426.087ZM63.652,88.472c0,1.538.86,2.6,2.81,3.392,1.494.611,1.725.791,1.725,1.343,0,.758-.659,1.1-2.118,1.1a11.775,11.775,0,0,1-3.307-.482l-.506,2.808.163.028.676.125c.218.038.539.074.964.106.877.069,1.556.1,2.035.1,3.893,0,5.691-1.285,5.691-4.061,0-1.671-.752-2.65-2.6-3.388-1.547-.616-1.726-.753-1.726-1.321,0-.656.614-.993,1.806-.993a23.645,23.645,0,0,1,2.651.183l.526-2.818a28.879,28.879,0,0,0-3.246-.238C65.068,84.357,63.64,86.227,63.652,88.472ZM49.208,96.8H46.178l.071-1.262a4.871,4.871,0,0,1-3.825,1.472,3.171,3.171,0,0,1-3.333-3.324c0-2.965,2.356-4.693,6.406-4.693a14.007,14.007,0,0,1,1.486.094,2.659,2.659,0,0,0,.144-.791c0-.806-.636-1.107-2.339-1.107a13.4,13.4,0,0,0-3.031.339l-.505.129-.327.079L41.43,85a16.374,16.374,0,0,1,4.366-.647c3.134,0,4.791,1.237,4.791,3.57a12.6,12.6,0,0,1-.3,2.411l-.762,4.318-.128.775-.093.619-.062.424-.036.33Zm-2.66-5.423a6.567,6.567,0,0,0-.815-.05c-2.067,0-3.114.622-3.114,1.852a1.193,1.193,0,0,0,1.308,1.241C45.414,94.419,46.485,93.175,46.548,91.376Zm14.624,5.16a14.142,14.142,0,0,1-3.737.494c-4.077,0-6.2-1.873-6.2-5.453,0-4.178,2.7-7.254,6.373-7.254,3,0,4.919,1.723,4.919,4.424a11.619,11.619,0,0,1-.448,3H54.827a2.33,2.33,0,0,0-.035.382c0,1.411,1.081,2.131,3.2,2.131a9.662,9.662,0,0,0,3.787-.77l-.606,3.042ZM59.23,89.293q.03-.38.03-.621A1.512,1.512,0,0,0,57.535,87.1c-1.16,0-1.99.778-2.326,2.182ZM100.1,91.28c-.546,4.049-3.353,5.844-7.084,5.844-4.126,0-5.792-2.521-5.792-5.61,0-4.314,2.822-7.237,7.181-7.237,3.783,0,5.792,2.4,5.792,5.493a7.721,7.721,0,0,1-.1,1.509Zm-3.756-1.557c0-1.273-.513-2.475-2.008-2.475-1.861,0-3.014,2.216-3.014,4.172,0,1.65.79,2.759,2.094,2.735a3.623,3.623,0,0,0,2.81-2.979A8.375,8.375,0,0,0,96.341,89.722Z" transform="translate(-11.712 -59.928)"/></g></svg>