<svg xmlns="http://www.w3.org/2000/svg" width="177.16" height="44.936" viewBox="0 0 177.16 44.936"><defs><style>.a{isolation:isolate;}.b{fill:#003087;}.c{fill:#009cde;}.d{fill:#012169;}</style></defs><g class="a"><path class="b" d="M45.578-87.382c-2.081-2.372-5.842-3.388-10.653-3.388H20.96a2,2,0,0,0-1.976,1.687L13.171-52.2a1.2,1.2,0,0,0,.273.965,1.2,1.2,0,0,0,.911.419h8.621l2.165-13.734-.067.43a1.994,1.994,0,0,1,1.968-1.687h4.1c8.048,0,14.35-3.269,16.191-12.726q.082-.419.143-.818c.547-3.5,0-5.874-1.894-8.028" transform="translate(-13.155 90.771)"/><path class="c" d="M232.946-61.845c-.527,3.46-3.17,3.46-5.725,3.46h-1.454l1.02-6.461a.8.8,0,0,1,.793-.677h.668c1.74,0,3.383,0,4.231.991a3.222,3.222,0,0,1,.467,2.687m-1.112-9.029h-9.64a1.342,1.342,0,0,0-1.325,1.131l-3.9,24.719a.8.8,0,0,0,.183.647.8.8,0,0,0,.61.282h4.947a.938.938,0,0,0,.926-.791l1.106-7.01a1.34,1.34,0,0,1,1.323-1.131h3.05c6.352,0,10.016-3.071,10.973-9.163.431-2.662.017-4.756-1.229-6.221-1.371-1.611-3.8-2.464-7.026-2.464" transform="translate(-94.98 82.783)"/><path class="b" d="M118.06-61.845c-.527,3.46-3.17,3.46-5.726,3.46h-1.454l1.02-6.461a.8.8,0,0,1,.793-.677h.667c1.74,0,3.383,0,4.231.991a3.217,3.217,0,0,1,.469,2.687m-1.112-9.029h-9.64a1.341,1.341,0,0,0-1.324,1.131l-3.9,24.719a.8.8,0,0,0,.183.647.8.8,0,0,0,.611.281h4.6a1.34,1.34,0,0,0,1.323-1.131l1.053-6.669a1.339,1.339,0,0,1,1.323-1.131h3.05c6.352,0,10.016-3.073,10.973-9.164.431-2.662.017-4.756-1.229-6.221-1.371-1.611-3.8-2.464-7.027-2.464m22.381,17.9a5.148,5.148,0,0,1-5.21,4.409,3.9,3.9,0,0,1-3.1-1.247,3.919,3.919,0,0,1-.723-3.242,5.165,5.165,0,0,1,5.173-4.442,3.891,3.891,0,0,1,3.078,1.258,3.974,3.974,0,0,1,.783,3.264m6.434-8.987h-4.616a.8.8,0,0,0-.8.68l-.2,1.29-.323-.467c-1-1.451-3.228-1.937-5.453-1.937a10.615,10.615,0,0,0-10.3,9.285,8.715,8.715,0,0,0,1.719,7.094,7.224,7.224,0,0,0,5.813,2.347,8.839,8.839,0,0,0,6.391-2.64l-.206,1.283a.8.8,0,0,0,.183.647.8.8,0,0,0,.611.281h4.156a1.34,1.34,0,0,0,1.324-1.131l2.5-15.8a.8.8,0,0,0-.184-.648.8.8,0,0,0-.612-.281" transform="translate(-48.855 82.783)"/><path class="c" d="M268.876-47.279a5.148,5.148,0,0,1-5.211,4.409,3.9,3.9,0,0,1-3.1-1.247,3.919,3.919,0,0,1-.723-3.242,5.164,5.164,0,0,1,5.173-4.442,3.891,3.891,0,0,1,3.078,1.258,3.974,3.974,0,0,1,.783,3.264m6.434-8.987h-4.616a.8.8,0,0,0-.8.68l-.2,1.29-.323-.467c-1-1.451-3.228-1.937-5.453-1.937a10.617,10.617,0,0,0-10.3,9.285,8.716,8.716,0,0,0,1.72,7.094,7.224,7.224,0,0,0,5.813,2.347,8.84,8.84,0,0,0,6.393-2.64l-.206,1.283a.8.8,0,0,0,.181.647.8.8,0,0,0,.611.281h4.155a1.342,1.342,0,0,0,1.325-1.131l2.5-15.8a.8.8,0,0,0-.184-.648.8.8,0,0,0-.612-.281" transform="translate(-109.64 77.092)"/><path class="b" d="M201.719-55.973h-4.641a1.334,1.334,0,0,0-1.106.588l-6.4,9.427-2.713-9.059a1.342,1.342,0,0,0-1.284-.957h-4.56a.8.8,0,0,0-.654.336.8.8,0,0,0-.107.728l5.109,15-4.805,6.78a.8.8,0,0,0-.057.833.8.8,0,0,0,.713.435h4.636a1.342,1.342,0,0,0,1.1-.575l15.43-22.271a.8.8,0,0,0,.053-.83.8.8,0,0,0-.711-.431" transform="translate(-80.224 76.801)"/><path class="c" d="M296.382-70.193l-3.958,25.171a.8.8,0,0,0,.183.647.8.8,0,0,0,.611.281H297.2a1.341,1.341,0,0,0,1.324-1.131l3.9-24.72a.8.8,0,0,0-.183-.648.8.8,0,0,0-.611-.281h-4.452a.8.8,0,0,0-.794.679" transform="translate(-125.273 82.782)"/><path class="b" d="M45.578-87.382c-2.081-2.372-5.842-3.388-10.653-3.388H20.96a2,2,0,0,0-1.976,1.687L13.171-52.2a1.2,1.2,0,0,0,.273.965,1.2,1.2,0,0,0,.911.419h8.621l2.165-13.734-.067.43a1.994,1.994,0,0,1,1.968-1.687h4.1c8.048,0,14.35-3.269,16.191-12.726q.082-.419.143-.818c.547-3.5,0-5.874-1.894-8.028" transform="translate(-13.155 90.771)"/><path class="b" d="M27.467-79.306a1.75,1.75,0,0,1,1.726-1.475H40.142a23.018,23.018,0,0,1,3.611.261,15.173,15.173,0,0,1,1.79.4,9.891,9.891,0,0,1,1.928.768c.549-3.5,0-5.874-1.893-8.03-2.082-2.37-5.842-3.387-10.653-3.387H20.958a2,2,0,0,0-1.974,1.687L13.169-52.205a1.2,1.2,0,0,0,.272.966,1.2,1.2,0,0,0,.911.42h8.622L25.14-64.554Z" transform="translate(-13.154 90.77)"/><path class="c" d="M53.65-71.7q-.064.41-.143.818c-1.841,9.455-8.143,12.726-16.191,12.726h-4.1a1.991,1.991,0,0,0-1.966,1.687l-2.1,13.3-.6,3.774a1.049,1.049,0,0,0,.239.846,1.049,1.049,0,0,0,.8.368h7.268a1.75,1.75,0,0,0,1.726-1.475l.071-.37,1.37-8.681.087-.48a1.749,1.749,0,0,1,1.728-1.475h1.088c7.04,0,12.553-2.859,14.164-11.132.671-3.455.323-6.343-1.454-8.37A6.941,6.941,0,0,0,53.65-71.7" transform="translate(-19.333 83.112)"/><path class="d" d="M53.539-73.421q-.421-.125-.869-.224c-.3-.066-.607-.124-.922-.174a22.573,22.573,0,0,0-3.612-.265H37.189a1.745,1.745,0,0,0-1.726,1.477L33.135-57.853l-.067.429a1.991,1.991,0,0,1,1.966-1.687h4.1c8.048,0,14.35-3.269,16.191-12.726.055-.28.1-.551.143-.818a9.941,9.941,0,0,0-1.514-.639c-.135-.045-.273-.087-.414-.129" transform="translate(-21.149 84.071)"/></g></svg>