<svg xmlns="http://www.w3.org/2000/svg" width="182.47" height="46.283" viewBox="0 0 182.47 46.283"><defs><style>.a{opacity:0.504;mix-blend-mode:luminosity;isolation:isolate;}.b{fill:#003087;}.c{fill:#009cde;}.d{fill:#012169;}</style></defs><g class="a" transform="translate(0)"><path class="b" d="M46.55-87.281c-2.143-2.443-6.017-3.49-10.973-3.49H21.194a2.06,2.06,0,0,0-2.036,1.737L13.172-51.048a1.234,1.234,0,0,0,.281.994,1.234,1.234,0,0,0,.939.432h8.88L25.5-63.767l-.069.443a2.053,2.053,0,0,1,2.027-1.737h4.22c8.289,0,14.78-3.367,16.676-13.107q.084-.432.147-.842c.563-3.6,0-6.05-1.951-8.269" transform="translate(-13.155 90.771)"/><path class="c" d="M233.425-61.574c-.543,3.564-3.265,3.564-5.9,3.564h-1.5l1.051-6.655a.827.827,0,0,1,.817-.7h.687c1.792,0,3.485,0,4.358,1.02a3.319,3.319,0,0,1,.481,2.768m-1.146-9.3H222.35a1.383,1.383,0,0,0-1.365,1.165l-4.012,25.46a.828.828,0,0,0,.189.666.828.828,0,0,0,.628.29h5.1a.966.966,0,0,0,.954-.814l1.139-7.22a1.38,1.38,0,0,1,1.362-1.165h3.142c6.542,0,10.316-3.163,11.3-9.438.444-2.742.018-4.9-1.266-6.408-1.412-1.659-3.915-2.537-7.237-2.537" transform="translate(-91.324 83.14)"/><path class="b" d="M118.539-61.574c-.543,3.564-3.265,3.564-5.9,3.564h-1.5l1.051-6.655a.827.827,0,0,1,.817-.7h.687c1.792,0,3.485,0,4.358,1.02a3.314,3.314,0,0,1,.483,2.768m-1.146-9.3h-9.929a1.381,1.381,0,0,0-1.363,1.165l-4.014,25.46a.827.827,0,0,0,.188.666.827.827,0,0,0,.629.29h4.742a1.38,1.38,0,0,0,1.362-1.165l1.084-6.868a1.379,1.379,0,0,1,1.362-1.165H114.6c6.542,0,10.316-3.165,11.3-9.439.444-2.742.018-4.9-1.266-6.408-1.412-1.659-3.915-2.537-7.237-2.537m23.052,18.442a5.3,5.3,0,0,1-5.367,4.541,4.014,4.014,0,0,1-3.193-1.284,4.036,4.036,0,0,1-.745-3.339,5.32,5.32,0,0,1,5.328-4.576,4.007,4.007,0,0,1,3.17,1.3,4.093,4.093,0,0,1,.807,3.362m6.626-9.256h-4.755a.828.828,0,0,0-.819.7l-.207,1.329-.333-.481c-1.029-1.494-3.325-1.995-5.616-1.995a10.934,10.934,0,0,0-10.613,9.563,8.977,8.977,0,0,0,1.771,7.306,7.44,7.44,0,0,0,5.988,2.417,9.1,9.1,0,0,0,6.583-2.719l-.213,1.321a.827.827,0,0,0,.188.667.827.827,0,0,0,.63.289h4.281a1.38,1.38,0,0,0,1.363-1.165l2.571-16.276a.828.828,0,0,0-.189-.667.828.828,0,0,0-.63-.289" transform="translate(-47.26 83.14)"/><path class="c" d="M269.337-47a5.3,5.3,0,0,1-5.367,4.541,4.014,4.014,0,0,1-3.193-1.284,4.036,4.036,0,0,1-.745-3.339,5.319,5.319,0,0,1,5.328-4.576,4.007,4.007,0,0,1,3.17,1.3A4.093,4.093,0,0,1,269.337-47m6.626-9.256h-4.755a.828.828,0,0,0-.819.7l-.207,1.329-.333-.481c-1.029-1.494-3.325-1.995-5.616-1.995a10.936,10.936,0,0,0-10.613,9.563,8.977,8.977,0,0,0,1.772,7.306,7.44,7.44,0,0,0,5.988,2.417,9.105,9.105,0,0,0,6.584-2.719l-.212,1.321a.824.824,0,0,0,.186.667.824.824,0,0,0,.629.29h4.28a1.382,1.382,0,0,0,1.365-1.165L276.782-55.3a.828.828,0,0,0-.189-.667.828.828,0,0,0-.63-.289" transform="translate(-105.329 77.703)"/><path class="b" d="M202.364-55.973h-4.78a1.374,1.374,0,0,0-1.139.606l-6.593,9.709-2.795-9.33a1.383,1.383,0,0,0-1.322-.986h-4.7a.828.828,0,0,0-.673.347.828.828,0,0,0-.11.749l5.262,15.447-4.949,6.984a.828.828,0,0,0-.059.858.828.828,0,0,0,.735.448h4.775a1.382,1.382,0,0,0,1.133-.593l15.893-22.939a.827.827,0,0,0,.054-.855.827.827,0,0,0-.733-.444" transform="translate(-77.227 77.425)"/><path class="c" d="M296.5-70.173l-4.076,25.926a.828.828,0,0,0,.189.666.828.828,0,0,0,.629.29h4.1a1.381,1.381,0,0,0,1.363-1.165l4.019-25.461a.827.827,0,0,0-.188-.667.827.827,0,0,0-.63-.289h-4.586a.826.826,0,0,0-.818.7" transform="translate(-120.263 83.139)"/><path class="b" d="M46.55-87.281c-2.143-2.443-6.017-3.49-10.973-3.49H21.194a2.06,2.06,0,0,0-2.036,1.737L13.172-51.048a1.234,1.234,0,0,0,.281.994,1.234,1.234,0,0,0,.939.432h8.88L25.5-63.767l-.069.443a2.053,2.053,0,0,1,2.027-1.737h4.22c8.289,0,14.78-3.367,16.676-13.107q.084-.432.147-.842c.563-3.6,0-6.05-1.951-8.269" transform="translate(-13.155 90.771)"/><path class="b" d="M27.9-78.962a1.8,1.8,0,0,1,1.778-1.52H40.95a23.706,23.706,0,0,1,3.719.269,15.626,15.626,0,0,1,1.844.412,10.187,10.187,0,0,1,1.986.791c.566-3.6,0-6.05-1.95-8.27-2.144-2.441-6.017-3.489-10.973-3.489H21.191a2.06,2.06,0,0,0-2.033,1.737L13.17-51.05a1.234,1.234,0,0,0,.28.995,1.234,1.234,0,0,0,.938.433h8.881L25.5-63.769Z" transform="translate(-13.154 90.77)"/><path class="c" d="M54.4-71.7q-.066.422-.147.842c-1.9,9.739-8.387,13.107-16.676,13.107H33.358a2.051,2.051,0,0,0-2.025,1.737l-2.161,13.7-.615,3.887a1.081,1.081,0,0,0,.246.871,1.08,1.08,0,0,0,.822.379h7.485a1.8,1.8,0,0,0,1.778-1.52l.073-.382,1.411-8.941.09-.494a1.8,1.8,0,0,1,1.78-1.52h1.12c7.251,0,12.929-2.945,14.588-11.466.691-3.559.333-6.533-1.5-8.621A7.149,7.149,0,0,0,54.4-71.7" transform="translate(-19.057 83.455)"/><path class="d" d="M54.152-73.4q-.434-.129-.895-.23c-.307-.068-.625-.128-.95-.179a23.25,23.25,0,0,0-3.72-.273H37.312a1.8,1.8,0,0,0-1.778,1.521l-2.4,15.2-.069.442a2.051,2.051,0,0,1,2.025-1.737h4.221c8.289,0,14.78-3.367,16.676-13.107.056-.288.1-.567.147-.842a10.239,10.239,0,0,0-1.559-.658c-.14-.046-.282-.09-.426-.133" transform="translate(-20.792 84.371)"/></g></svg>