<svg xmlns="http://www.w3.org/2000/svg" width="143.514" height="46.559" viewBox="0 0 143.514 46.559"><defs><style>.a{opacity:0.504;mix-blend-mode:luminosity;isolation:isolate;}.b{fill:#2566af;}.c{fill:#e6a540;}</style></defs><g class="a"><g transform="translate(0)"><path class="b" d="M73.441,97.3H61.73l7.319-44.979H80.761ZM51.879,52.323,40.715,83.26,39.393,76.6v0l-3.94-20.228s-.476-4.05-5.555-4.05H11.443l-.217.762a43.809,43.809,0,0,1,12.249,5.141L33.649,97.3h12.2L64.482,52.323h-12.6ZM143.987,97.3H154.74l-9.375-44.981h-9.414c-4.347,0-5.406,3.352-5.406,3.352L113.08,97.3h12.207l2.441-6.681h14.887ZM131.1,81.391l6.153-16.832,3.462,16.832ZM114,63.139l1.671-9.659a33.8,33.8,0,0,0-10.533-1.961c-5.811,0-19.612,2.54-19.612,14.89,0,11.62,16.2,11.765,16.2,17.868S87.192,89.288,82.4,85.439l-1.741,10.1a32.817,32.817,0,0,0,13.218,2.54c7.991,0,20.047-4.138,20.047-15.4,0-11.695-16.343-12.784-16.343-17.868S108.985,60.378,114,63.139Z" transform="translate(-11.226 -51.519)"/></g><path class="c" d="M39.395,76.464l-3.94-20.228s-.476-4.05-5.555-4.05H11.443l-.217.762a45.372,45.372,0,0,1,17.38,8.727A35.074,35.074,0,0,1,39.395,76.464Z" transform="translate(-11.226 -51.384)"/></g></svg>