<svg xmlns="http://www.w3.org/2000/svg" width="38.727" height="25.829" viewBox="0 0 38.727 25.829">
  <path id="Icon_ionic-ios-arrow-round-forward" data-name="Icon ionic-ios-arrow-round-forward" d="M32.572,11.746a1.758,1.758,0,0,0-.013,2.475l8.179,8.192H9.61a1.749,1.749,0,0,0,0,3.5H40.724L32.545,34.1a1.77,1.77,0,0,0,.013,2.475,1.742,1.742,0,0,0,2.462-.013L46.1,25.4h0a1.964,1.964,0,0,0,.363-.552,1.669,1.669,0,0,0,.135-.673,1.753,1.753,0,0,0-.5-1.224L35.02,11.787A1.714,1.714,0,0,0,32.572,11.746Z" transform="translate(-7.875 -11.252)"/>
</svg>
