<svg xmlns="http://www.w3.org/2000/svg" width="165.539" height="46.559" viewBox="0 0 165.539 46.559"><defs><style>.a{fill:#0077a6;fill-rule:evenodd;opacity:0.504;mix-blend-mode:luminosity;isolation:isolate;}</style></defs><path class="a" d="M179.818,120.451c0,4.139-2.621,6.068-7.312,6.068h-8.965V122.38h8.965a2.86,2.86,0,0,0,1.795-.412,1.756,1.756,0,0,0,.551-1.242,2.1,2.1,0,0,0-.551-1.379,2.394,2.394,0,0,0-1.656-.414c-4.275-.139-9.656.137-9.656-5.932,0-2.76,1.793-5.795,6.621-5.795h9.242v4.139H170.3a3.272,3.272,0,0,0-1.793.275,1.976,1.976,0,0,0-.689,1.518,1.5,1.5,0,0,0,.965,1.381,7.052,7.052,0,0,0,1.795.275h2.482c2.621,0,4.277.551,5.381,1.518A5.961,5.961,0,0,1,179.818,120.451Zm-19.451-4.139c-1.1-.967-2.76-1.518-5.381-1.518H152.5a7.073,7.073,0,0,1-1.793-.275,1.5,1.5,0,0,1-.965-1.381,1.618,1.618,0,0,1,.689-1.518,3.268,3.268,0,0,1,1.793-.275h8.553v-4.139h-9.242c-4.967,0-6.623,3.035-6.623,5.795,0,6.068,5.381,5.793,9.658,5.932a2.388,2.388,0,0,1,1.654.414,2.107,2.107,0,0,1,.553,1.379,1.754,1.754,0,0,1-.553,1.242,3.137,3.137,0,0,1-1.793.412h-8.967v4.139h8.967c4.689,0,7.311-1.93,7.311-6.068a5.952,5.952,0,0,0-1.379-4.139Zm-17.658,6.208h-10.9v-3.863h10.621V114.8H131.813v-3.588h10.9v-4H127.26V126.52h15.449v-4Zm-20.416-14.346c-1.518-.828-3.311-.967-5.656-.967H106.016v19.312H110.7v-7.035h4.967c1.654,0,2.621.139,3.311.828.828.965.828,2.621.828,3.863v2.344h4.551v-3.725a6.366,6.366,0,0,0-.689-3.586,5.379,5.379,0,0,0-2.344-1.656,5.315,5.315,0,0,0,3.311-5.1A4.331,4.331,0,0,0,122.293,108.174Zm-26.21-.967H81.322l-5.932,6.346-5.656-6.346H51.111v19.312H69.459l5.932-6.346,5.656,6.346h8.967v-6.482h5.794c4,0,8-1.1,8-6.484,0-5.242-4.14-6.346-7.727-6.346Zm22.485,8a5.732,5.732,0,0,1-2.207.275l-5.656.139v-4.416h5.656a3.741,3.741,0,0,1,2.207.414,1.755,1.755,0,0,1,.965,1.656A2.411,2.411,0,0,1,118.568,115.209Zm-22.485.965h-6.07v-4.967h6.07c1.656,0,2.759.691,2.759,2.346A2.5,2.5,0,0,1,96.083,116.174Zm-17.8.689,7.173-7.586v15.588ZM67.113,122.52H55.663v-3.863H65.871V114.8H55.663v-3.588H67.251l5.1,5.656-5.242,5.656Zm99.875-23.246h-6.621l-8.691-14.485V99.274H142.3L140.5,95h-9.656l-1.793,4.277h-5.381c-2.207,0-5.1-.552-6.758-2.208-1.518-1.655-2.346-3.862-2.346-7.311,0-2.9.414-5.518,2.482-7.587,1.379-1.518,3.863-2.207,7.035-2.207H128.5V84.1h-4.414a4.877,4.877,0,0,0-3.586,1.1c-.828.828-1.242,2.345-1.242,4.414a6.905,6.905,0,0,0,1.242,4.553,4.6,4.6,0,0,0,3.172.965h2.07l6.621-15.174h6.9l7.725,18.209V79.961h7.174L162.3,93.342V79.961h4.689V99.274h0ZM112.223,79.961h-4.689V99.274h4.689V79.961Zm-9.795.828c-1.518-.828-3.172-.828-5.517-.828H86.288V99.274H90.84V92.238h4.966c1.656,0,2.76.138,3.449.828.828.966.689,2.622.689,3.725v2.483h4.689V95.411a5.149,5.149,0,0,0-.826-3.449,5.772,5.772,0,0,0-2.207-1.655,5.477,5.477,0,0,0,3.311-5.1,4.778,4.778,0,0,0-2.483-4.414ZM82.977,95.274H72.217V91.411H82.839v-4H72.217V83.962h10.76v-4H67.527V99.275h15.45v-4Zm-18.9-15.313H56.491l-5.656,13.1-6.07-13.1H37.316V98.17L29.453,79.961h-6.9L14.279,99.274h4.966L21.038,95h9.656l1.793,4.277h9.381V84.1l6.759,15.174h4L59.387,84.1V99.274h4.69V79.961h0Zm74.77,10.9-3.174-7.587L132.5,90.859ZM98.842,87.825a4.216,4.216,0,0,1-2.345.414H90.84V83.963H96.5a6.091,6.091,0,0,1,2.345.276,2.052,2.052,0,0,1,.828,1.793A1.9,1.9,0,0,1,98.842,87.825ZM22.693,90.859l3.173-7.587,3.173,7.587Z" transform="translate(-14.279 -79.961)"/></svg>