<svg xmlns="http://www.w3.org/2000/svg" width="174" height="81" viewBox="0 0 174 81"><defs><style>.a,.e{fill:none;}.a{stroke:#e5e5e5;stroke-width:2px;}.b{isolation:isolate;}.c{fill:#f6f6f6;}.d{stroke:none;}</style></defs><g transform="translate(-857 -878)"><g class="a" transform="translate(857 878)"><rect class="d" width="174" height="81" rx="8"/><rect class="e" x="1" y="1" width="172" height="79" rx="7"/></g><g class="b" transform="translate(879 896)"><path d="M-9.5,63.138a11.675,11.675,0,0,1,.513-2.654,14.185,14.185,0,0,1,1.007-2.9c.224-.489.453-.991.692-1.5s.6-.947.895-1.434A17.883,17.883,0,0,1-4.256,51.9a29.042,29.042,0,0,1,2.542-2.427c.934-.661,1.824-1.426,2.779-1.964a27.177,27.177,0,0,1,2.779-1.561c.9-.484,1.793-.814,2.607-1.179,1.262-.492,2.378-.869,3.3-1.14a19.806,19.806,0,0,1-.96-2.984,16.251,16.251,0,0,1-.5-3.445,16.435,16.435,0,0,1,3.21,1.345,20.446,20.446,0,0,1,2.714,1.73A26.145,26.145,0,0,1,18.651,44.5a3.5,3.5,0,0,1,.341,4.046l-.153.252a26.642,26.642,0,0,1-4.355,5.542,21.774,21.774,0,0,1-2.841,2.341c-.533.354-1.085.7-1.649,1.028a15.492,15.492,0,0,1-1.881.874,14.832,14.832,0,0,1,.016-2.074c.068-.653.148-1.293.25-1.925a21.5,21.5,0,0,1,.955-3.556c.042-.122.091-.237.138-.356-.4.047-.817.1-1.27.169-.708.151-1.514.255-2.318.489a20.943,20.943,0,0,0-2.531.762c-.9.265-1.707.723-2.622,1.09A24.684,24.684,0,0,0-1.766,54.7a14.775,14.775,0,0,0-2.266,1.881c-.333.346-.726.666-1.03,1.041-.289.382-.58.765-.864,1.14A12.577,12.577,0,0,0-7.37,61.1a10.653,10.653,0,0,0-1,2.308,16.68,16.68,0,0,0-.656,2.061c-.122.64-.229,1.194-.315,1.655-.172.931-.273,1.462-.273,1.462s-.016-.539-.047-1.483c-.016-.476-.031-1.056-.052-1.722A16.111,16.111,0,0,1-9.5,63.138ZM66,42.268h5.021L78.372,63.11h-4.73L72.3,58.817H64.611L63.157,63.11H58.573ZM48.78,68.305H45.549v8.786H43.325V68.305H40.1V66.414h8.684Zm-8.687-5.2V42.265H50.227c5.112,0,6.418,3.2,6.418,5.346a4.163,4.163,0,0,1-2.555,4.267c2.555.957,3.221,2.989,3.221,5.047a6.057,6.057,0,0,1-1.8,4.3c-1.189,1.166-2.321,1.889-6.59,1.889ZM56.585,77.094a7.1,7.1,0,0,1-.234-2.154c0-1.452-.091-2.019-1.743-2.019h-2.3v4.173H50.115V66.416h5.4a3,3,0,0,1,3.359,3.018,2.547,2.547,0,0,1-1.652,2.544c.877.385,1.355.713,1.355,2.706,0,1.558,0,1.949.473,2.126l0,.284H56.585Zm10.867,0-.687-2.2H62.827l-.741,2.2H59.733L63.54,66.414h2.576l3.759,10.677Zm12.457,0H77.674l-4.355-7.612h-.031v7.612H71.209V66.416h2.347L77.8,73.849h.026V66.416h2.084V77.094ZM5.5,75.97a19.931,19.931,0,0,1,1.051,2.955,16.766,16.766,0,0,1,.6,3.424A15.724,15.724,0,0,1,3.9,81.1a20.564,20.564,0,0,1-2.768-1.647,26.406,26.406,0,0,1-4.558-4.092,3.5,3.5,0,0,1-.463-4.035l.148-.255A26.52,26.52,0,0,1,.448,65.4a21.079,21.079,0,0,1,2.768-2.427c.523-.369,1.056-.728,1.616-1.074a14.862,14.862,0,0,1,1.855-.929,13.906,13.906,0,0,1,.042,2.071c-.044.656-.107,1.3-.187,1.933a21.46,21.46,0,0,1-.848,3.585c-.042.122-.091.237-.127.359.4-.06.812-.127,1.264-.208.7-.172,1.5-.3,2.3-.557a20,20,0,0,0,2.511-.838c.892-.289,1.686-.773,2.586-1.166a24.337,24.337,0,0,0,2.446-1.584,14.016,14.016,0,0,0,2.209-1.946c.336-.359.715-.689,1.009-1.069.276-.4.554-.786.825-1.168A12.483,12.483,0,0,0,22.08,58,10.449,10.449,0,0,0,23,55.664a17.143,17.143,0,0,0,.6-2.079c.1-.643.19-1.2.26-1.662.153-.934.234-1.467.234-1.467s.036.536.091,1.478c.026.476.06,1.059.1,1.722a16.5,16.5,0,0,1-.138,2.245,11.839,11.839,0,0,1-.432,2.667,13.98,13.98,0,0,1-.921,2.924c-.206.5-.424,1-.645,1.517-.239.507-.565.968-.851,1.462a18.036,18.036,0,0,1-2.053,2.818,28.72,28.72,0,0,1-2.469,2.5c-.918.689-1.787,1.48-2.724,2.048a27.193,27.193,0,0,1-2.729,1.642c-.887.513-1.769.872-2.573,1.257C7.511,75.26,6.408,75.671,5.5,75.97Zm75.463-33.7H85.55l8.276,14.515h.057V42.268h4.064V63.112H93.6l-8.51-14.863h-.057V63.112H80.963Zm5.115,35.109c-3.895,0-4.561-2.245-4.561-3.569H83.65c.016.6.315,1.725,2.266,1.725,1.051,0,2.23-.252,2.23-1.381,0-.835-.8-1.056-1.936-1.324l-1.142-.271c-1.727-.4-3.39-.783-3.39-3.135,0-1.189.635-3.288,4.1-3.288,3.273,0,4.147,2.141,4.163,3.45H87.808c-.068-.471-.239-1.605-2.191-1.605-.843,0-1.86.312-1.86,1.277,0,.838.687,1.015,1.134,1.116l2.6.64c1.462.354,2.8.955,2.8,2.872C90.287,77.091,87.014,77.377,86.078,77.377Zm13.51-9.072H94.224v2.409h4.7V72.6h-4.7v4.49h-2.23V66.416h7.594Zm9.605,8.786h-8.1V66.414h7.852v1.894h-5.666V70.55h5.2v1.889h-5.2V75.2h5.919Zm10.758,0h-2.464a7.1,7.1,0,0,1-.234-2.154c0-1.452-.1-2.019-1.743-2.019h-2.3v4.173h-2.191V66.416h5.4a3.01,3.01,0,0,1,3.364,3.018,2.555,2.555,0,0,1-1.655,2.544c.874.385,1.355.713,1.355,2.706,0,1.558,0,1.949.473,2.126Zm.942-13.979h-5.6l-6.444-9.147-2.032,2.089v7.058h-4.355V42.268h4.355v8.479l7.958-8.479h5.63L111.894,50.8l9,12.306Z" transform="translate(9.716 -37.2)"/><path class="c" d="M25.313,32.554h-.06L22.581,40.8H27.9Z" transform="translate(52.906 -22.785)"/><path class="c" d="M19.315,32.133h-5v4.558h5.107c1.717-.005,3.08-.676,3.08-2.326C22.507,32.653,21.287,32.133,19.315,32.133Z" transform="translate(39.675 -23.459)"/><path class="c" d="M19.864,35.232H14.32v5.575h5.341c2.118,0,3.338-.934,3.338-3.049C23,35.929,21.433,35.232,19.864,35.232Z" transform="translate(39.675 -18.496)"/><path class="c" d="M43.587,40.737H40.816v2.857h2.612c1.16,0,1.728-.4,1.728-1.46C45.15,41.57,44.9,40.737,43.587,40.737Z" transform="translate(82.113 -9.679)"/><path class="c" d="M23.07,40.956h-.021l-1.371,4.22H24.4Z" transform="translate(51.46 -9.328)"/><path class="c" d="M20.183,40.737H17.4v2.857h2.612c1.163,0,1.728-.4,1.728-1.46C21.744,41.57,21.489,40.737,20.183,40.737Z" transform="translate(44.615 -9.679)"/></g></g></svg>