<svg xmlns="http://www.w3.org/2000/svg" width="36.999" height="24.666" viewBox="0 0 36.999 24.666"><defs><style>.a{fill:#f0f0f0;}.b{fill:#d80027;}.c{fill:#2e52b2;}</style></defs><g transform="translate(0 -85.331)"><rect class="a" width="36.999" height="24.666" transform="translate(0 85.331)"/><g transform="translate(0 88.414)"><rect class="b" width="36.999" height="3.083"/><rect class="b" width="36.999" height="3.083" transform="translate(0 6.167)"/><rect class="b" width="36.999" height="3.083" transform="translate(0 12.333)"/><rect class="b" width="36.999" height="3.083" transform="translate(0 18.5)"/></g><rect class="c" width="18.5" height="13.282" transform="translate(0 85.331)"/><g transform="translate(1.879 87.464)"><path class="a" d="M83.625,160.624l-.3.917h-.964l.78.566-.3.917.78-.566.779.566-.3-.917.78-.566h-.964Z" transform="translate(-78.29 -157.316)"/><path class="a" d="M83.922,207.314l-.3-.917-.3.917h-.964l.78.566-.3.917.78-.566.779.566-.3-.917.78-.566Z" transform="translate(-78.29 -199.781)"/><path class="a" d="M27.56,207.314l-.3-.917-.3.917H26l.78.566-.3.917.78-.566.779.566-.3-.917.78-.566Z" transform="translate(-26.001 -199.781)"/><path class="a" d="M27.263,160.624l-.3.917H26l.78.566-.3.917.78-.566.779.566-.3-.917.78-.566H27.56Z" transform="translate(-26.001 -157.316)"/><path class="a" d="M83.625,114.85l-.3.917h-.964l.78.566-.3.917.78-.566.779.566-.3-.917.78-.566h-.964Z" transform="translate(-78.29 -114.85)"/><path class="a" d="M27.263,114.85l-.3.917H26l.78.566-.3.917.78-.566.779.566-.3-.917.78-.566H27.56Z" transform="translate(-26.001 -114.85)"/><path class="a" d="M139.987,160.624l-.3.917h-.964l.78.566-.3.917.78-.566.779.566-.3-.917.78-.566h-.964Z" transform="translate(-130.579 -157.316)"/><path class="a" d="M140.284,207.314l-.3-.917-.3.917h-.964l.78.566-.3.917.78-.566.779.566-.3-.917.78-.566Z" transform="translate(-130.579 -199.781)"/><path class="a" d="M196.647,207.314l-.3-.917-.3.917h-.964l.78.566-.3.917.78-.566.779.566-.3-.917.78-.566Z" transform="translate(-182.869 -199.781)"/><path class="a" d="M196.35,160.624l-.3.917h-.964l.78.566-.3.917.78-.566.779.566-.3-.917.78-.566h-.964Z" transform="translate(-182.869 -157.316)"/><path class="a" d="M139.987,114.85l-.3.917h-.964l.78.566-.3.917.78-.566.779.566-.3-.917.78-.566h-.964Z" transform="translate(-130.579 -114.85)"/><path class="a" d="M196.35,114.85l-.3.917h-.964l.78.566-.3.917.78-.566.779.566-.3-.917.78-.566h-.964Z" transform="translate(-182.869 -114.85)"/></g></g></svg>