<svg xmlns="http://www.w3.org/2000/svg" width="54.522" height="72.696" viewBox="0 0 54.522 72.696"><defs><style>.a{fill:#284fd1;}</style></defs><g transform="translate(-64)"><g transform="translate(64)"><path class="a" d="M117.008,27.261h-4.544V21.2a21.2,21.2,0,1,0-42.406,0v6.058H65.515A1.514,1.514,0,0,0,64,28.776V66.638A6.064,6.064,0,0,0,70.058,72.7h42.406a6.064,6.064,0,0,0,6.058-6.058V28.776A1.514,1.514,0,0,0,117.008,27.261ZM95.8,58.9A1.515,1.515,0,0,1,94.29,60.58H88.232A1.515,1.515,0,0,1,86.727,58.9l.955-8.592A5.992,5.992,0,0,1,85.2,45.435a6.058,6.058,0,1,1,12.116,0,5.992,5.992,0,0,1-2.479,4.872Zm7.581-31.638H79.145V21.2a12.116,12.116,0,1,1,24.232,0Z" transform="translate(-64)"/></g></g></svg>