<svg xmlns="http://www.w3.org/2000/svg" width="75.887" height="59.039" viewBox="0 0 75.887 59.039"><defs><style>.a{isolation:isolate;}.b{fill:#231f20;}.c{fill:#f79410;}.d{fill:#ff5f00;}.e{fill:#eb001b;}.f{fill:#f79e1b;}</style></defs><g class="a"><path class="b" d="M174.014,1325.363v.152h.141a.148.148,0,0,0,.076-.019.067.067,0,0,0,.028-.058.065.065,0,0,0-.028-.057.137.137,0,0,0-.076-.019h-.141Zm.143-.107a.264.264,0,0,1,.17.049.163.163,0,0,1,.06.134.154.154,0,0,1-.048.118.233.233,0,0,1-.136.057l.19.216h-.146l-.174-.215h-.057v.215h-.122v-.574h.266Zm-.038.772a.459.459,0,0,0,.186-.038.493.493,0,0,0,.152-.1.48.48,0,0,0,.1-.152.491.491,0,0,0,0-.376.5.5,0,0,0-.1-.152.491.491,0,0,0-.152-.1.478.478,0,0,0-.186-.036.5.5,0,0,0-.19.036.478.478,0,0,0-.256.634.453.453,0,0,0,.1.152.485.485,0,0,0,.155.1.471.471,0,0,0,.19.038m0-1.1a.635.635,0,0,1,.446.182.612.612,0,0,1,.134.677.637.637,0,0,1-.134.2.675.675,0,0,1-.2.133.619.619,0,0,1-.246.049.627.627,0,0,1-.249-.049.594.594,0,0,1-.334-.336.612.612,0,0,1,.134-.677.6.6,0,0,1,.2-.133.627.627,0,0,1,.249-.049m-58.094-2.21a1.885,1.885,0,1,1,1.889,1.994,1.869,1.869,0,0,1-1.889-1.994m5.041,0V1319.6h-1.354v.759a2.36,2.36,0,0,0-1.967-.913,3.274,3.274,0,0,0,0,6.54,2.361,2.361,0,0,0,1.967-.912v.756h1.353v-3.115Zm45.751,0a1.886,1.886,0,1,1,1.889,1.994,1.869,1.869,0,0,1-1.889-1.994m5.043,0V1317.1h-1.355v3.259a2.36,2.36,0,0,0-1.967-.913,3.274,3.274,0,0,0,0,6.54,2.361,2.361,0,0,0,1.967-.912v.756h1.355Zm-33.989-2.058a1.546,1.546,0,0,1,1.576,1.51h-3.231a1.6,1.6,0,0,1,1.655-1.51m.027-1.214a3.273,3.273,0,0,0,.091,6.54,3.782,3.782,0,0,0,2.553-.873l-.664-1a2.97,2.97,0,0,1-1.812.651,1.729,1.729,0,0,1-1.862-1.525h4.624c.013-.168.027-.339.027-.521a2.987,2.987,0,0,0-2.957-3.27m16.348,3.27a1.885,1.885,0,1,1,1.889,1.994,1.869,1.869,0,0,1-1.889-1.994m5.041,0V1319.6h-1.353v.759a2.362,2.362,0,0,0-1.967-.913,3.274,3.274,0,0,0,0,6.54,2.363,2.363,0,0,0,1.967-.912v.756h1.354v-3.115Zm-12.687,0a3.146,3.146,0,0,0,3.322,3.27,3.256,3.256,0,0,0,2.238-.742l-.65-1.095a2.737,2.737,0,0,1-1.631.561,2,2,0,0,1,0-3.987,2.744,2.744,0,0,1,1.631.561l.65-1.095a3.259,3.259,0,0,0-2.238-.742,3.145,3.145,0,0,0-3.322,3.27m17.456-3.27a1.838,1.838,0,0,0-1.642.913v-.755h-1.342v6.227h1.356v-3.49c0-1.03.443-1.6,1.328-1.6a2.2,2.2,0,0,1,.847.157l.417-1.276a2.881,2.881,0,0,0-.965-.17m-36.294.651a4.656,4.656,0,0,0-2.539-.651c-1.577,0-2.593.756-2.593,1.993,0,1.015.756,1.642,2.148,1.837l.64.091c.742.1,1.093.3,1.093.651,0,.481-.493.756-1.419.756a3.318,3.318,0,0,1-2.071-.651l-.636,1.056a4.493,4.493,0,0,0,2.7.808c1.8,0,2.84-.847,2.84-2.032,0-1.095-.82-1.667-2.175-1.863l-.638-.093c-.586-.076-1.056-.194-1.056-.611,0-.455.443-.729,1.186-.729a4.017,4.017,0,0,1,1.941.534l.586-1.094Zm17.471-.65a1.833,1.833,0,0,0-1.64.912v-.757h-1.342v6.227h1.354v-3.49c0-1.03.443-1.6,1.328-1.6a2.2,2.2,0,0,1,.847.157l.417-1.276a2.881,2.881,0,0,0-.965-.17m-11.554.156h-2.214v-1.889H130.1v1.889h-1.263v1.238H130.1v2.84c0,1.445.561,2.305,2.163,2.305a3.181,3.181,0,0,0,1.694-.481l-.391-1.16a2.506,2.506,0,0,1-1.2.352c-.677,0-.9-.417-.9-1.042v-2.814h2.214Zm-20.244,6.228v-3.908a2.318,2.318,0,0,0-2.45-2.475,2.411,2.411,0,0,0-2.189,1.108,2.285,2.285,0,0,0-2.058-1.108,2.06,2.06,0,0,0-1.824.925v-.77H103.56v6.227h1.366v-3.452a1.458,1.458,0,0,1,1.525-1.655c.9,0,1.354.586,1.354,1.642v3.465h1.369v-3.452a1.469,1.469,0,0,1,1.524-1.655c.925,0,1.366.586,1.366,1.642v3.465Z" transform="translate(-99.631 -1267.131)"/><path class="c" d="M1930.826,978.131v-.911h-.237l-.274.625-.273-.625h-.238v.911h.168v-.686l.257.592h.175l.256-.593v.688h.167Zm-1.5,0v-.755h.3v-.154h-.775v.154h.3v.755h.167Z" transform="translate(-1855.672 -940.146)"/><path class="d" d="M750.23,169.027H729.71V132.15h20.52Z" transform="translate(-702.026 -127.136)"/><path class="e" d="M28.985,23.452A23.414,23.414,0,0,1,37.942,5.014a23.453,23.453,0,1,0,0,36.877,23.414,23.414,0,0,1-8.957-18.438" transform="translate(0 0.001)"/><path class="f" d="M1038.054,23.452A23.451,23.451,0,0,1,1000.11,41.89a23.455,23.455,0,0,0,0-36.877,23.451,23.451,0,0,1,37.944,18.438" transform="translate(-962.167 0.001)"/></g></svg>