<svg xmlns="http://www.w3.org/2000/svg" width="99.773" height="99.772" viewBox="0 0 99.773 99.772"><defs><style>.a{fill:#284fd1;}</style></defs><path class="a" d="M83.654,68.755a5.811,5.811,0,0,1,.791-2.926,8.076,8.076,0,0,1,.5-.743,38.862,38.862,0,0,0,6.62-21.657c.072-22.113-18.587-40.053-41.66-40.053C29.787,3.375,13,17.07,9.065,35.249a38.542,38.542,0,0,0-.887,8.2A40.684,40.684,0,0,0,49.19,84.008a49.393,49.393,0,0,0,11.32-1.847c2.71-.743,5.4-1.727,6.092-1.991a6.341,6.341,0,0,1,2.23-.408,6.235,6.235,0,0,1,2.422.48l13.6,4.821a3.243,3.243,0,0,0,.935.24,1.909,1.909,0,0,0,1.919-1.919,3.081,3.081,0,0,0-.12-.648Z" transform="translate(8.204 -3.375)"/><path class="a" d="M68.251,63.028c-.863.24-1.967.5-3.166.767a44.265,44.265,0,0,1-8.154,1.079A40.684,40.684,0,0,1,15.919,24.319a45.344,45.344,0,0,1,.36-5.133c.144-1.031.312-2.063.552-3.07.24-1.079.528-2.159.839-3.214l-1.919,1.7A35.692,35.692,0,0,0,3.375,41.443,35.294,35.294,0,0,0,9.323,61.11c.552.839.863,1.487.767,1.919S7.236,77.9,7.236,77.9a1.924,1.924,0,0,0,.648,1.847,1.954,1.954,0,0,0,1.223.432,1.72,1.72,0,0,0,.7-.144l13.455-5.3a3.748,3.748,0,0,1,2.878.048,40.365,40.365,0,0,0,14.558,2.878A37.668,37.668,0,0,0,69.5,64.443s.767-1.055,1.655-2.3C70.266,62.453,69.258,62.765,68.251,63.028Z" transform="translate(-3.375 19.596)"/></svg>