<svg xmlns="http://www.w3.org/2000/svg" width="134.938" height="43.777" viewBox="0 0 134.938 43.777"><defs><style>.a{isolation:isolate;}.b{fill:#2566af;}.c{fill:#e6a540;}</style></defs><g transform="translate(-690.288 -896.391)"><g class="a" transform="translate(690.288 896.391)"><g transform="translate(0)"><path class="b" d="M69.723,94.566H58.712l6.882-42.291H76.606ZM49.449,52.275l-10.5,29.088L37.71,75.1v0l-3.7-19.019s-.448-3.808-5.223-3.808H11.43l-.2.716a41.191,41.191,0,0,1,11.517,4.834l9.566,36.743H43.782L61.3,52.275H49.449Zm86.6,42.291h10.11l-8.815-42.293H128.5a5.059,5.059,0,0,0-5.083,3.152L106.994,94.566h11.478l2.3-6.282h14Zm-12.116-14.96,5.785-15.826,3.255,15.826ZM107.855,62.445l1.571-9.082a31.781,31.781,0,0,0-9.9-1.844c-5.464,0-18.44,2.388-18.44,14,0,10.926,15.229,11.062,15.229,16.8s-13.66,4.711-18.168,1.092l-1.637,9.5A30.856,30.856,0,0,0,88.935,95.3c7.514,0,18.849-3.89,18.849-14.479,0-11-15.366-12.02-15.366-16.8s10.724-4.168,15.436-1.571Z" transform="translate(-11.226 -51.519)"/></g><path class="c" d="M37.711,75.013l-3.7-19.019s-.448-3.808-5.223-3.808H11.43l-.2.716a42.661,42.661,0,0,1,16.341,8.205A32.978,32.978,0,0,1,37.711,75.013Z" transform="translate(-11.226 -51.431)"/></g></g></svg>